<svg id="visual" viewBox="0 0 1528 742" width="1528" height="742" xmlns="http://www.w3.org/2000/svg" xmlns:xlink="http://www.w3.org/1999/xlink" version="1.1"><path d="M0 444L51 453.7C102 463.3 204 482.7 305.8 492C407.7 501.3 509.3 500.7 611.2 496.3C713 492 815 484 916.8 472.2C1018.7 460.3 1120.3 444.7 1222.2 449C1324 453.3 1426 477.7 1477 489.8L1528 502L1528 743L1477 743C1426 743 1324 743 1222.2 743C1120.3 743 1018.7 743 916.8 743C815 743 713 743 611.2 743C509.3 743 407.7 743 305.8 743C204 743 102 743 51 743L0 743Z" fill="#2e8ded"></path><path d="M0 624L51 609.7C102 595.3 204 566.7 305.8 569C407.7 571.3 509.3 604.7 611.2 616.7C713 628.7 815 619.3 916.8 607.3C1018.7 595.3 1120.3 580.7 1222.2 586.8C1324 593 1426 620 1477 633.5L1528 647L1528 743L1477 743C1426 743 1324 743 1222.2 743C1120.3 743 1018.7 743 916.8 743C815 743 713 743 611.2 743C509.3 743 407.7 743 305.8 743C204 743 102 743 51 743L0 743Z" fill="#1ee538"></path></svg>