<svg id="visual" viewBox="0 0 1528 742" width="1528" height="742" xmlns="http://www.w3.org/2000/svg" xmlns:xlink="http://www.w3.org/1999/xlink" version="1.1"><g stroke-width="1" stroke-linejoin="bevel"><path d="M747.1 358.8L750.1 402.2L788.9 350.8Z" fill="#f99634" stroke="#f99634"></path><path d="M750.1 402.2L829.9 395.2L788.9 350.8Z" fill="#f16217" stroke="#f16217"></path><path d="M919.8 331.8L799.9 281.3L788.9 350.8Z" fill="#fb9f3c" stroke="#fb9f3c"></path><path d="M788.9 350.8L740.1 268.3L747.1 358.8Z" fill="#f99634" stroke="#f99634"></path><path d="M799.9 281.3L740.1 268.3L788.9 350.8Z" fill="#ea3811" stroke="#ea3811"></path><path d="M648.2 470.7L687.1 492.7L750.1 402.2Z" fill="#ed4812" stroke="#ed4812"></path><path d="M750.1 402.2L816.9 492.7L829.9 395.2Z" fill="#e82311" stroke="#e82311"></path><path d="M632.2 338.8L750.1 402.2L747.1 358.8Z" fill="#f57820" stroke="#f57820"></path><path d="M750.1 402.2L687.1 492.7L816.9 492.7Z" fill="#e82311" stroke="#e82311"></path><path d="M740.1 268.3L632.2 338.8L747.1 358.8Z" fill="#f57820" stroke="#f57820"></path><path d="M930.8 419.2L919.8 331.8L829.9 395.2Z" fill="#f57820" stroke="#f57820"></path><path d="M829.9 395.2L919.8 331.8L788.9 350.8Z" fill="#f99634" stroke="#f99634"></path><path d="M632.2 338.8L648.2 470.7L750.1 402.2Z" fill="#ef5514" stroke="#ef5514"></path><path d="M919.8 331.8L878.8 257.3L799.9 281.3Z" fill="#f99634" stroke="#f99634"></path><path d="M799.9 281.3L728.1 178.9L740.1 268.3Z" fill="#fb9f3c" stroke="#fb9f3c"></path><path d="M816.9 492.7L930.8 419.2L829.9 395.2Z" fill="#e82311" stroke="#e82311"></path><path d="M655.2 594.1L729.1 541.1L687.1 492.7Z" fill="#fb9f3c" stroke="#fb9f3c"></path><path d="M687.1 492.7L729.1 541.1L816.9 492.7Z" fill="#f36d1b" stroke="#f36d1b"></path><path d="M729.1 541.1L831.9 547.1L816.9 492.7Z" fill="#ed4812" stroke="#ed4812"></path><path d="M816.9 492.7L881.8 525.7L930.8 419.2Z" fill="#ed4812" stroke="#ed4812"></path><path d="M632.2 338.8L594.2 381.2L648.2 470.7Z" fill="#ed4812" stroke="#ed4812"></path><path d="M831.9 547.1L881.8 525.7L816.9 492.7Z" fill="#f16217" stroke="#f16217"></path><path d="M728.1 178.9L631.2 238.3L740.1 268.3Z" fill="#fb9f3c" stroke="#fb9f3c"></path><path d="M740.1 268.3L631.2 238.3L632.2 338.8Z" fill="#f57820" stroke="#f57820"></path><path d="M632.2 338.8L538.3 332.8L594.2 381.2Z" fill="#f88c2d" stroke="#f88c2d"></path><path d="M866.8 174.9L728.1 178.9L799.9 281.3Z" fill="#f57820" stroke="#f57820"></path><path d="M1005.7 487.7L978.7 379.2L930.8 419.2Z" fill="#f36d1b" stroke="#f36d1b"></path><path d="M930.8 419.2L978.7 379.2L919.8 331.8Z" fill="#e82311" stroke="#e82311"></path><path d="M919.8 331.8L988.7 277.3L878.8 257.3Z" fill="#f99634" stroke="#f99634"></path><path d="M978.7 379.2L979.7 358.8L919.8 331.8Z" fill="#f88c2d" stroke="#f88c2d"></path><path d="M985.7 143.9L866.8 174.9L878.8 257.3Z" fill="#ed4812" stroke="#ed4812"></path><path d="M878.8 257.3L866.8 174.9L799.9 281.3Z" fill="#ef5514" stroke="#ef5514"></path><path d="M831.9 547.1L901.8 578.1L881.8 525.7Z" fill="#ef5514" stroke="#ef5514"></path><path d="M881.8 525.7L1005.7 487.7L930.8 419.2Z" fill="#f99634" stroke="#f99634"></path><path d="M805.9 685.6L901.8 578.1L831.9 547.1Z" fill="#e82311" stroke="#e82311"></path><path d="M1046.6 381.2L988.7 277.3L979.7 358.8Z" fill="#f68226" stroke="#f68226"></path><path d="M979.7 358.8L988.7 277.3L919.8 331.8Z" fill="#fb9f3c" stroke="#fb9f3c"></path><path d="M631.2 238.3L538.3 332.8L632.2 338.8Z" fill="#f88c2d" stroke="#f88c2d"></path><path d="M521.3 503.7L655.2 594.1L648.2 470.7Z" fill="#ed4812" stroke="#ed4812"></path><path d="M648.2 470.7L655.2 594.1L687.1 492.7Z" fill="#ea3811" stroke="#ea3811"></path><path d="M729.1 541.1L805.9 685.6L831.9 547.1Z" fill="#f57820" stroke="#f57820"></path><path d="M521.3 503.7L648.2 470.7L594.2 381.2Z" fill="#e82311" stroke="#e82311"></path><path d="M866.8 174.9L789.9 129.9L728.1 178.9Z" fill="#ea3811" stroke="#ea3811"></path><path d="M728.1 178.9L631.2 141.9L631.2 238.3Z" fill="#ea3811" stroke="#ea3811"></path><path d="M538.3 332.8L523.3 395.2L594.2 381.2Z" fill="#f36d1b" stroke="#f36d1b"></path><path d="M985.7 579.1L1005.7 487.7L881.8 525.7Z" fill="#ef5514" stroke="#ef5514"></path><path d="M978.7 379.2L1046.6 381.2L979.7 358.8Z" fill="#e82311" stroke="#e82311"></path><path d="M1005.7 487.7L1046.6 381.2L978.7 379.2Z" fill="#fb9f3c" stroke="#fb9f3c"></path><path d="M688.1 62.4L631.2 141.9L728.1 178.9Z" fill="#f57820" stroke="#f57820"></path><path d="M631.2 238.3L518.3 220.3L538.3 332.8Z" fill="#fb9f3c" stroke="#fb9f3c"></path><path d="M523.3 395.2L521.3 503.7L594.2 381.2Z" fill="#f68226" stroke="#f68226"></path><path d="M510.3 575.1L630.2 628.6L655.2 594.1Z" fill="#ea3811" stroke="#ea3811"></path><path d="M655.2 594.1L729.1 679.6L729.1 541.1Z" fill="#f88c2d" stroke="#f88c2d"></path><path d="M901.8 578.1L985.7 579.1L881.8 525.7Z" fill="#f99634" stroke="#f99634"></path><path d="M1005.7 487.7L1069.6 460.7L1046.6 381.2Z" fill="#f68226" stroke="#f68226"></path><path d="M900.8 689.6L985.7 579.1L901.8 578.1Z" fill="#f88c2d" stroke="#f88c2d"></path><path d="M631.2 141.9L571.3 158.9L631.2 238.3Z" fill="#f88c2d" stroke="#f88c2d"></path><path d="M538.3 332.8L477.4 317.8L523.3 395.2Z" fill="#f57820" stroke="#f57820"></path><path d="M571.3 158.9L518.3 220.3L631.2 238.3Z" fill="#ea3811" stroke="#ea3811"></path><path d="M523.3 395.2L454.4 399.2L521.3 503.7Z" fill="#ea3811" stroke="#ea3811"></path><path d="M464.4 268.3L477.4 317.8L538.3 332.8Z" fill="#f68226" stroke="#f68226"></path><path d="M630.2 628.6L729.1 679.6L655.2 594.1Z" fill="#fb9f3c" stroke="#fb9f3c"></path><path d="M985.7 143.9L932.8 116.4L866.8 174.9Z" fill="#f99634" stroke="#f99634"></path><path d="M866.8 174.9L842.9 78.4L789.9 129.9Z" fill="#f99634" stroke="#f99634"></path><path d="M789.9 129.9L688.1 62.4L728.1 178.9Z" fill="#ea3811" stroke="#ea3811"></path><path d="M985.7 143.9L878.8 257.3L988.7 277.3Z" fill="#ef5514" stroke="#ef5514"></path><path d="M1082.6 556.1L1069.6 460.7L1005.7 487.7Z" fill="#ed4812" stroke="#ed4812"></path><path d="M932.8 116.4L842.9 78.4L866.8 174.9Z" fill="#f16217" stroke="#f16217"></path><path d="M631.2 141.9L570.3 87.4L571.3 158.9Z" fill="#ed4812" stroke="#ed4812"></path><path d="M729.1 679.6L805.9 685.6L729.1 541.1Z" fill="#f68226" stroke="#f68226"></path><path d="M1111.6 350.8L988.7 277.3L1046.6 381.2Z" fill="#ea3811" stroke="#ea3811"></path><path d="M1095.6 251.3L985.7 143.9L988.7 277.3Z" fill="#ea3811" stroke="#ea3811"></path><path d="M477.4 317.8L454.4 399.2L523.3 395.2Z" fill="#f16217" stroke="#f16217"></path><path d="M518.3 220.3L464.4 268.3L538.3 332.8Z" fill="#f57820" stroke="#f57820"></path><path d="M477.4 317.8L392.5 396.2L454.4 399.2Z" fill="#f68226" stroke="#f68226"></path><path d="M434.4 130.9L464.4 268.3L518.3 220.3Z" fill="#fb9f3c" stroke="#fb9f3c"></path><path d="M795.9 0L688.1 62.4L789.9 129.9Z" fill="#f16217" stroke="#f16217"></path><path d="M483.4 578.1L510.3 575.1L521.3 503.7Z" fill="#ea3811" stroke="#ea3811"></path><path d="M521.3 503.7L510.3 575.1L655.2 594.1Z" fill="#ed4812" stroke="#ed4812"></path><path d="M745.1 742L805.9 685.6L729.1 679.6Z" fill="#f16217" stroke="#f16217"></path><path d="M805.9 685.6L900.8 689.6L901.8 578.1Z" fill="#ef5514" stroke="#ef5514"></path><path d="M1069.6 460.7L1111.6 350.8L1046.6 381.2Z" fill="#ef5514" stroke="#ef5514"></path><path d="M1111.6 350.8L1095.6 251.3L988.7 277.3Z" fill="#ed4812" stroke="#ed4812"></path><path d="M392.5 396.2L440.4 490.7L454.4 399.2Z" fill="#ea3811" stroke="#ea3811"></path><path d="M454.4 399.2L440.4 490.7L521.3 503.7Z" fill="#f99634" stroke="#f99634"></path><path d="M440.4 490.7L483.4 578.1L521.3 503.7Z" fill="#ed4812" stroke="#ed4812"></path><path d="M553.3 742L655.2 742L630.2 628.6Z" fill="#ed4812" stroke="#ed4812"></path><path d="M688.1 62.4L598.2 73.4L631.2 141.9Z" fill="#f57820" stroke="#f57820"></path><path d="M571.3 158.9L434.4 130.9L518.3 220.3Z" fill="#f68226" stroke="#f68226"></path><path d="M598.2 73.4L570.3 87.4L631.2 141.9Z" fill="#f99634" stroke="#f99634"></path><path d="M1075.6 673.6L1082.6 556.1L985.7 579.1Z" fill="#e82311" stroke="#e82311"></path><path d="M985.7 579.1L1082.6 556.1L1005.7 487.7Z" fill="#fb9f3c" stroke="#fb9f3c"></path><path d="M1069.6 460.7L1156.5 384.2L1111.6 350.8Z" fill="#ea3811" stroke="#ea3811"></path><path d="M932.8 116.4L915.8 0L842.9 78.4Z" fill="#ef5514" stroke="#ef5514"></path><path d="M842.9 78.4L795.9 0L789.9 129.9Z" fill="#f68226" stroke="#f68226"></path><path d="M985.7 143.9L990.7 87.4L932.8 116.4Z" fill="#ef5514" stroke="#ef5514"></path><path d="M1060.6 66.4L990.7 87.4L985.7 143.9Z" fill="#f68226" stroke="#f68226"></path><path d="M745.1 742L799.9 742L805.9 685.6Z" fill="#ea3811" stroke="#ea3811"></path><path d="M805.9 685.6L868.8 742L900.8 689.6Z" fill="#ed4812" stroke="#ed4812"></path><path d="M745.1 742L729.1 679.6L655.2 742Z" fill="#f57820" stroke="#f57820"></path><path d="M655.2 742L729.1 679.6L630.2 628.6Z" fill="#f57820" stroke="#f57820"></path><path d="M799.9 742L868.8 742L805.9 685.6Z" fill="#f36d1b" stroke="#f36d1b"></path><path d="M900.8 689.6L1003.7 686.6L985.7 579.1Z" fill="#f68226" stroke="#f68226"></path><path d="M915.8 0L795.9 0L842.9 78.4Z" fill="#ed4812" stroke="#ed4812"></path><path d="M688.1 62.4L604.2 0L598.2 73.4Z" fill="#f36d1b" stroke="#f36d1b"></path><path d="M335.5 296.8L392.5 396.2L477.4 317.8Z" fill="#fb9f3c" stroke="#fb9f3c"></path><path d="M447.4 647.6L520.3 686.6L483.4 578.1Z" fill="#e82311" stroke="#e82311"></path><path d="M520.3 686.6L630.2 628.6L510.3 575.1Z" fill="#f36d1b" stroke="#f36d1b"></path><path d="M795.9 0L718.1 0L688.1 62.4Z" fill="#e82311" stroke="#e82311"></path><path d="M598.2 73.4L566.3 0L570.3 87.4Z" fill="#f99634" stroke="#f99634"></path><path d="M1146.5 512.7L1156.5 384.2L1069.6 460.7Z" fill="#ed4812" stroke="#ed4812"></path><path d="M1111.6 350.8L1154.5 271.3L1095.6 251.3Z" fill="#f57820" stroke="#f57820"></path><path d="M973.7 742L1003.7 686.6L900.8 689.6Z" fill="#e82311" stroke="#e82311"></path><path d="M1154.5 271.3L1113.6 190.9L1095.6 251.3Z" fill="#fb9f3c" stroke="#fb9f3c"></path><path d="M1095.6 251.3L1113.6 190.9L985.7 143.9Z" fill="#f88c2d" stroke="#f88c2d"></path><path d="M1228.4 389.2L1166.5 364.8L1156.5 384.2Z" fill="#f88c2d" stroke="#f88c2d"></path><path d="M1156.5 384.2L1166.5 364.8L1111.6 350.8Z" fill="#ea3811" stroke="#ea3811"></path><path d="M1166.5 364.8L1154.5 271.3L1111.6 350.8Z" fill="#f88c2d" stroke="#f88c2d"></path><path d="M1195.5 564.1L1146.5 512.7L1082.6 556.1Z" fill="#f36d1b" stroke="#f36d1b"></path><path d="M1082.6 556.1L1146.5 512.7L1069.6 460.7Z" fill="#f57820" stroke="#f57820"></path><path d="M387.5 485.7L483.4 578.1L440.4 490.7Z" fill="#ef5514" stroke="#ef5514"></path><path d="M483.4 578.1L520.3 686.6L510.3 575.1Z" fill="#f99634" stroke="#f99634"></path><path d="M392.5 396.2L387.5 485.7L440.4 490.7Z" fill="#e82311" stroke="#e82311"></path><path d="M975.7 0L915.8 0L990.7 87.4Z" fill="#e82311" stroke="#e82311"></path><path d="M990.7 87.4L915.8 0L932.8 116.4Z" fill="#e82311" stroke="#e82311"></path><path d="M718.1 0L604.2 0L688.1 62.4Z" fill="#e82311" stroke="#e82311"></path><path d="M570.3 87.4L434.4 130.9L571.3 158.9Z" fill="#f16217" stroke="#f16217"></path><path d="M464.4 268.3L335.5 296.8L477.4 317.8Z" fill="#f36d1b" stroke="#f36d1b"></path><path d="M868.8 742L973.7 742L900.8 689.6Z" fill="#ea3811" stroke="#ea3811"></path><path d="M1003.7 686.6L1075.6 673.6L985.7 579.1Z" fill="#f99634" stroke="#f99634"></path><path d="M428.4 74.4L434.4 130.9L570.3 87.4Z" fill="#ea3811" stroke="#ea3811"></path><path d="M327.5 601.1L447.4 647.6L483.4 578.1Z" fill="#ed4812" stroke="#ed4812"></path><path d="M1063.6 742L1075.6 673.6L1003.7 686.6Z" fill="#f16217" stroke="#f16217"></path><path d="M520.3 686.6L553.3 742L630.2 628.6Z" fill="#fb9f3c" stroke="#fb9f3c"></path><path d="M434.4 742L553.3 742L520.3 686.6Z" fill="#f68226" stroke="#f68226"></path><path d="M1181.5 160.9L1060.6 66.4L1113.6 190.9Z" fill="#f88c2d" stroke="#f88c2d"></path><path d="M1113.6 190.9L1060.6 66.4L985.7 143.9Z" fill="#ea3811" stroke="#ea3811"></path><path d="M1060.6 66.4L975.7 0L990.7 87.4Z" fill="#ea3811" stroke="#ea3811"></path><path d="M604.2 0L566.3 0L598.2 73.4Z" fill="#f99634" stroke="#f99634"></path><path d="M326.5 221.3L335.5 296.8L464.4 268.3Z" fill="#ef5514" stroke="#ef5514"></path><path d="M392.5 396.2L282.6 478.7L387.5 485.7Z" fill="#ea3811" stroke="#ea3811"></path><path d="M428.4 74.4L379.5 149.9L434.4 130.9Z" fill="#f16217" stroke="#f16217"></path><path d="M434.4 130.9L379.5 149.9L464.4 268.3Z" fill="#ea3811" stroke="#ea3811"></path><path d="M1248.4 528.7L1228.4 389.2L1146.5 512.7Z" fill="#ef5514" stroke="#ef5514"></path><path d="M1146.5 512.7L1228.4 389.2L1156.5 384.2Z" fill="#f16217" stroke="#f16217"></path><path d="M1166.5 364.8L1245.4 348.8L1154.5 271.3Z" fill="#f88c2d" stroke="#f88c2d"></path><path d="M1154.5 271.3L1181.5 160.9L1113.6 190.9Z" fill="#f16217" stroke="#f16217"></path><path d="M566.3 0L428.4 74.4L570.3 87.4Z" fill="#fb9f3c" stroke="#fb9f3c"></path><path d="M1137.5 674.6L1195.5 564.1L1082.6 556.1Z" fill="#f57820" stroke="#f57820"></path><path d="M1229.4 239.3L1181.5 160.9L1154.5 271.3Z" fill="#ea3811" stroke="#ea3811"></path><path d="M1060.6 66.4L1110.6 0L975.7 0Z" fill="#f68226" stroke="#f68226"></path><path d="M973.7 742L1063.6 742L1003.7 686.6Z" fill="#ea3811" stroke="#ea3811"></path><path d="M1075.6 673.6L1137.5 674.6L1082.6 556.1Z" fill="#f68226" stroke="#f68226"></path><path d="M1134.5 742L1137.5 674.6L1075.6 673.6Z" fill="#f16217" stroke="#f16217"></path><path d="M379.5 149.9L326.5 221.3L464.4 268.3Z" fill="#f57820" stroke="#f57820"></path><path d="M263.6 153.9L326.5 221.3L379.5 149.9Z" fill="#ea3811" stroke="#ea3811"></path><path d="M1315.2 333.8L1245.4 348.8L1228.4 389.2Z" fill="#f57820" stroke="#f57820"></path><path d="M1228.4 389.2L1245.4 348.8L1166.5 364.8Z" fill="#e82311" stroke="#e82311"></path><path d="M1245.4 348.8L1229.4 239.3L1154.5 271.3Z" fill="#f36d1b" stroke="#f36d1b"></path><path d="M346.5 652.6L434.4 742L447.4 647.6Z" fill="#e82311" stroke="#e82311"></path><path d="M447.4 647.6L434.4 742L520.3 686.6Z" fill="#ef5514" stroke="#ef5514"></path><path d="M327.5 601.1L483.4 578.1L387.5 485.7Z" fill="#ea3811" stroke="#ea3811"></path><path d="M273.6 237.3L275.6 361.8L335.5 296.8Z" fill="#ef5514" stroke="#ef5514"></path><path d="M335.5 296.8L275.6 361.8L392.5 396.2Z" fill="#e82311" stroke="#e82311"></path><path d="M304.6 574.1L327.5 601.1L387.5 485.7Z" fill="#f99634" stroke="#f99634"></path><path d="M1256.4 567.1L1248.4 528.7L1195.5 564.1Z" fill="#f57820" stroke="#f57820"></path><path d="M1195.5 564.1L1248.4 528.7L1146.5 512.7Z" fill="#f57820" stroke="#f57820"></path><path d="M275.6 361.8L282.6 478.7L392.5 396.2Z" fill="#ed4812" stroke="#ed4812"></path><path d="M327.5 601.1L346.5 652.6L447.4 647.6Z" fill="#ea3811" stroke="#ea3811"></path><path d="M566.3 0L436.4 0L428.4 74.4Z" fill="#ed4812" stroke="#ed4812"></path><path d="M428.4 74.4L345.5 106.4L379.5 149.9Z" fill="#f99634" stroke="#f99634"></path><path d="M331.5 0L345.5 106.4L428.4 74.4Z" fill="#fb9f3c" stroke="#fb9f3c"></path><path d="M326.5 221.3L273.6 237.3L335.5 296.8Z" fill="#ef5514" stroke="#ef5514"></path><path d="M282.6 478.7L304.6 574.1L387.5 485.7Z" fill="#f88c2d" stroke="#f88c2d"></path><path d="M327.5 601.1L303.6 625.6L346.5 652.6Z" fill="#f36d1b" stroke="#f36d1b"></path><path d="M1167.5 47.4L1060.6 66.4L1181.5 160.9Z" fill="#f88c2d" stroke="#f88c2d"></path><path d="M1167.5 47.4L1110.6 0L1060.6 66.4Z" fill="#f57820" stroke="#f57820"></path><path d="M1063.6 742L1134.5 742L1075.6 673.6Z" fill="#f36d1b" stroke="#f36d1b"></path><path d="M1244.4 643.6L1256.4 567.1L1195.5 564.1Z" fill="#f16217" stroke="#f16217"></path><path d="M1230.4 135.9L1167.5 47.4L1181.5 160.9Z" fill="#fb9f3c" stroke="#fb9f3c"></path><path d="M1229.4 239.3L1230.4 135.9L1181.5 160.9Z" fill="#f57820" stroke="#f57820"></path><path d="M1369.2 158.9L1230.4 135.9L1229.4 239.3Z" fill="#f57820" stroke="#f57820"></path><path d="M263.6 153.9L273.6 237.3L326.5 221.3Z" fill="#ef5514" stroke="#ef5514"></path><path d="M1244.4 643.6L1195.5 564.1L1137.5 674.6Z" fill="#fb9f3c" stroke="#fb9f3c"></path><path d="M1374.2 437.2L1315.2 333.8L1228.4 389.2Z" fill="#f36d1b" stroke="#f36d1b"></path><path d="M201.8 662.6L303.6 625.6L168.8 599.1Z" fill="#f57820" stroke="#f57820"></path><path d="M304.6 574.1L303.6 625.6L327.5 601.1Z" fill="#f16217" stroke="#f16217"></path><path d="M346.5 652.6L337.5 742L434.4 742Z" fill="#e82311" stroke="#e82311"></path><path d="M275.6 361.8L233.6 408.2L282.6 478.7Z" fill="#f57820" stroke="#f57820"></path><path d="M282.6 478.7L209.8 514.7L304.6 574.1Z" fill="#fb9f3c" stroke="#fb9f3c"></path><path d="M147.8 393.2L233.6 408.2L147.8 313.8Z" fill="#f99634" stroke="#f99634"></path><path d="M1244.4 742L1244.4 643.6L1137.5 674.6Z" fill="#f88c2d" stroke="#f88c2d"></path><path d="M1239.4 0L1161.5 0L1167.5 47.4Z" fill="#ea3811" stroke="#ea3811"></path><path d="M1167.5 47.4L1161.5 0L1110.6 0Z" fill="#ef5514" stroke="#ef5514"></path><path d="M1318.2 500.7L1228.4 389.2L1248.4 528.7Z" fill="#ed4812" stroke="#ed4812"></path><path d="M1245.4 348.8L1315.2 333.8L1229.4 239.3Z" fill="#f88c2d" stroke="#f88c2d"></path><path d="M1318.2 500.7L1248.4 528.7L1256.4 567.1Z" fill="#f68226" stroke="#f68226"></path><path d="M331.5 0L303.6 98.4L345.5 106.4Z" fill="#fb9f3c" stroke="#fb9f3c"></path><path d="M345.5 106.4L263.6 153.9L379.5 149.9Z" fill="#ea3811" stroke="#ea3811"></path><path d="M273.6 237.3L185.8 240.3L275.6 361.8Z" fill="#f88c2d" stroke="#f88c2d"></path><path d="M303.6 98.4L263.6 153.9L345.5 106.4Z" fill="#f68226" stroke="#f68226"></path><path d="M1338.2 554.1L1318.2 500.7L1256.4 567.1Z" fill="#ea3811" stroke="#ea3811"></path><path d="M284.6 742L346.5 652.6L303.6 625.6Z" fill="#ef5514" stroke="#ef5514"></path><path d="M284.6 742L337.5 742L346.5 652.6Z" fill="#f68226" stroke="#f68226"></path><path d="M1438.1 318.8L1335.2 264.3L1315.2 333.8Z" fill="#ed4812" stroke="#ed4812"></path><path d="M1315.2 333.8L1335.2 264.3L1229.4 239.3Z" fill="#fb9f3c" stroke="#fb9f3c"></path><path d="M1230.4 135.9L1278.4 73.4L1167.5 47.4Z" fill="#f99634" stroke="#f99634"></path><path d="M147.8 393.2L209.8 514.7L233.6 408.2Z" fill="#f99634" stroke="#f99634"></path><path d="M233.6 408.2L209.8 514.7L282.6 478.7Z" fill="#f16217" stroke="#f16217"></path><path d="M303.6 98.4L211.8 108.4L263.6 153.9Z" fill="#e82311" stroke="#e82311"></path><path d="M436.4 0L331.5 0L428.4 74.4Z" fill="#ed4812" stroke="#ed4812"></path><path d="M1361.2 112.4L1278.4 73.4L1230.4 135.9Z" fill="#f88c2d" stroke="#f88c2d"></path><path d="M1244.4 643.6L1338.2 554.1L1256.4 567.1Z" fill="#f16217" stroke="#f16217"></path><path d="M1318.2 500.7L1374.2 437.2L1228.4 389.2Z" fill="#e82311" stroke="#e82311"></path><path d="M1134.5 742L1244.4 742L1137.5 674.6Z" fill="#e82311" stroke="#e82311"></path><path d="M1244.4 643.6L1349.2 666.6L1338.2 554.1Z" fill="#f57820" stroke="#f57820"></path><path d="M1278.4 73.4L1239.4 0L1167.5 47.4Z" fill="#f88c2d" stroke="#f88c2d"></path><path d="M180.8 143.9L185.8 240.3L263.6 153.9Z" fill="#ed4812" stroke="#ed4812"></path><path d="M263.6 153.9L185.8 240.3L273.6 237.3Z" fill="#f57820" stroke="#f57820"></path><path d="M1338.2 554.1L1374.2 437.2L1318.2 500.7Z" fill="#f99634" stroke="#f99634"></path><path d="M201.8 662.6L284.6 742L303.6 625.6Z" fill="#f36d1b" stroke="#f36d1b"></path><path d="M269.6 0L211.8 108.4L303.6 98.4Z" fill="#e82311" stroke="#e82311"></path><path d="M147.8 313.8L233.6 408.2L275.6 361.8Z" fill="#fb9f3c" stroke="#fb9f3c"></path><path d="M168.8 599.1L303.6 625.6L304.6 574.1Z" fill="#f88c2d" stroke="#f88c2d"></path><path d="M147.8 313.8L275.6 361.8L185.8 240.3Z" fill="#f88c2d" stroke="#f88c2d"></path><path d="M79.9 338.8L147.8 313.8L84.9 264.3Z" fill="#f16217" stroke="#f16217"></path><path d="M331.5 0L269.6 0L303.6 98.4Z" fill="#ea3811" stroke="#ea3811"></path><path d="M1427.1 223.3L1369.2 158.9L1335.2 264.3Z" fill="#fb9f3c" stroke="#fb9f3c"></path><path d="M1335.2 264.3L1369.2 158.9L1229.4 239.3Z" fill="#f88c2d" stroke="#f88c2d"></path><path d="M1278.4 73.4L1333.2 0L1239.4 0Z" fill="#f57820" stroke="#f57820"></path><path d="M211.8 108.4L180.8 143.9L263.6 153.9Z" fill="#ea3811" stroke="#ea3811"></path><path d="M105.9 134.9L180.8 143.9L211.8 108.4Z" fill="#f99634" stroke="#f99634"></path><path d="M168.8 599.1L304.6 574.1L209.8 514.7Z" fill="#f99634" stroke="#f99634"></path><path d="M90.9 602.1L168.8 599.1L65.9 513.7Z" fill="#ef5514" stroke="#ef5514"></path><path d="M1244.4 742L1349.2 666.6L1244.4 643.6Z" fill="#ef5514" stroke="#ef5514"></path><path d="M1463.1 504.7L1419.1 409.2L1374.2 437.2Z" fill="#f57820" stroke="#f57820"></path><path d="M1369.2 158.9L1361.2 112.4L1230.4 135.9Z" fill="#e82311" stroke="#e82311"></path><path d="M1463.1 504.7L1374.2 437.2L1338.2 554.1Z" fill="#f36d1b" stroke="#f36d1b"></path><path d="M1374.2 437.2L1419.1 409.2L1315.2 333.8Z" fill="#ea3811" stroke="#ea3811"></path><path d="M1369.2 158.9L1412.1 90.4L1361.2 112.4Z" fill="#f99634" stroke="#f99634"></path><path d="M1419.1 409.2L1438.1 318.8L1315.2 333.8Z" fill="#f88c2d" stroke="#f88c2d"></path><path d="M1438.1 318.8L1427.1 223.3L1335.2 264.3Z" fill="#f99634" stroke="#f99634"></path><path d="M1412.1 90.4L1333.2 0L1361.2 112.4Z" fill="#f16217" stroke="#f16217"></path><path d="M1361.2 112.4L1333.2 0L1278.4 73.4Z" fill="#ef5514" stroke="#ef5514"></path><path d="M147.8 313.8L94.9 389.2L147.8 393.2Z" fill="#f99634" stroke="#f99634"></path><path d="M147.8 393.2L65.9 513.7L209.8 514.7Z" fill="#f57820" stroke="#f57820"></path><path d="M79.9 338.8L94.9 389.2L147.8 313.8Z" fill="#ea3811" stroke="#ea3811"></path><path d="M84.9 264.3L147.8 313.8L185.8 240.3Z" fill="#f16217" stroke="#f16217"></path><path d="M1244.4 742L1364.2 742L1349.2 666.6Z" fill="#f68226" stroke="#f68226"></path><path d="M1440.1 667.6L1453.1 546.1L1338.2 554.1Z" fill="#ed4812" stroke="#ed4812"></path><path d="M1419.1 409.2L1528 332.8L1438.1 318.8Z" fill="#f16217" stroke="#f16217"></path><path d="M105.9 134.9L185.8 240.3L180.8 143.9Z" fill="#f88c2d" stroke="#f88c2d"></path><path d="M105.9 134.9L84.9 264.3L185.8 240.3Z" fill="#f16217" stroke="#f16217"></path><path d="M1440.1 667.6L1338.2 554.1L1349.2 666.6Z" fill="#f68226" stroke="#f68226"></path><path d="M1467.1 160.9L1412.1 90.4L1369.2 158.9Z" fill="#ea3811" stroke="#ea3811"></path><path d="M1467.1 160.9L1369.2 158.9L1427.1 223.3Z" fill="#ef5514" stroke="#ef5514"></path><path d="M1453.1 546.1L1463.1 504.7L1338.2 554.1Z" fill="#f57820" stroke="#f57820"></path><path d="M1528 211.3L1467.1 160.9L1427.1 223.3Z" fill="#ea3811" stroke="#ea3811"></path><path d="M154.8 0L105.9 134.9L211.8 108.4Z" fill="#ef5514" stroke="#ef5514"></path><path d="M168.8 599.1L124.9 677.6L201.8 662.6Z" fill="#f36d1b" stroke="#f36d1b"></path><path d="M201.8 662.6L149.8 742L284.6 742Z" fill="#f36d1b" stroke="#f36d1b"></path><path d="M90.9 602.1L124.9 677.6L168.8 599.1Z" fill="#ed4812" stroke="#ed4812"></path><path d="M168.8 599.1L209.8 514.7L65.9 513.7Z" fill="#f57820" stroke="#f57820"></path><path d="M65.9 513.7L147.8 393.2L94.9 389.2Z" fill="#ea3811" stroke="#ea3811"></path><path d="M0 471.7L65.9 513.7L94.9 389.2Z" fill="#f99634" stroke="#f99634"></path><path d="M0 357.8L94.9 389.2L79.9 338.8Z" fill="#f88c2d" stroke="#f88c2d"></path><path d="M71.9 742L149.8 742L124.9 677.6Z" fill="#f88c2d" stroke="#f88c2d"></path><path d="M124.9 677.6L149.8 742L201.8 662.6Z" fill="#f88c2d" stroke="#f88c2d"></path><path d="M269.6 0L154.8 0L211.8 108.4Z" fill="#f68226" stroke="#f68226"></path><path d="M1364.2 742L1440.1 667.6L1349.2 666.6Z" fill="#fb9f3c" stroke="#fb9f3c"></path><path d="M1528 509.7L1528 436.2L1463.1 504.7Z" fill="#f36d1b" stroke="#f36d1b"></path><path d="M1528 211.3L1427.1 223.3L1438.1 318.8Z" fill="#fb9f3c" stroke="#fb9f3c"></path><path d="M0 158.9L0 232.3L84.9 264.3Z" fill="#f68226" stroke="#f68226"></path><path d="M84.9 264.3L0 357.8L79.9 338.8Z" fill="#f88c2d" stroke="#f88c2d"></path><path d="M154.8 0L74.9 100.4L105.9 134.9Z" fill="#f57820" stroke="#f57820"></path><path d="M1528 94.4L1423.1 0L1412.1 90.4Z" fill="#f99634" stroke="#f99634"></path><path d="M1412.1 90.4L1423.1 0L1333.2 0Z" fill="#ed4812" stroke="#ed4812"></path><path d="M154.8 0L121.9 0L74.9 100.4Z" fill="#f68226" stroke="#f68226"></path><path d="M1528 436.2L1528 332.8L1419.1 409.2Z" fill="#f88c2d" stroke="#f88c2d"></path><path d="M1467.1 160.9L1528 94.4L1412.1 90.4Z" fill="#ef5514" stroke="#ef5514"></path><path d="M1528 436.2L1419.1 409.2L1463.1 504.7Z" fill="#ed4812" stroke="#ed4812"></path><path d="M1528 509.7L1463.1 504.7L1528 552.1Z" fill="#f99634" stroke="#f99634"></path><path d="M1528 552.1L1463.1 504.7L1453.1 546.1Z" fill="#f88c2d" stroke="#f88c2d"></path><path d="M0 232.3L0 357.8L84.9 264.3Z" fill="#fb9f3c" stroke="#fb9f3c"></path><path d="M65.9 513.7L0 558.1L90.9 602.1Z" fill="#f68226" stroke="#f68226"></path><path d="M0 357.8L0 400.2L94.9 389.2Z" fill="#ed4812" stroke="#ed4812"></path><path d="M0 640.6L71.9 742L124.9 677.6Z" fill="#f57820" stroke="#f57820"></path><path d="M1528 332.8L1528 211.3L1438.1 318.8Z" fill="#ef5514" stroke="#ef5514"></path><path d="M1528 659.6L1528 552.1L1453.1 546.1Z" fill="#fb9f3c" stroke="#fb9f3c"></path><path d="M1364.2 742L1460.1 742L1440.1 667.6Z" fill="#f68226" stroke="#f68226"></path><path d="M1440.1 667.6L1528 659.6L1453.1 546.1Z" fill="#ef5514" stroke="#ef5514"></path><path d="M0 400.2L0 471.7L94.9 389.2Z" fill="#f36d1b" stroke="#f36d1b"></path><path d="M0 158.9L84.9 264.3L105.9 134.9Z" fill="#f88c2d" stroke="#f88c2d"></path><path d="M0 158.9L105.9 134.9L74.9 100.4Z" fill="#f99634" stroke="#f99634"></path><path d="M1528 211.3L1528 156.9L1467.1 160.9Z" fill="#f16217" stroke="#f16217"></path><path d="M0 640.6L124.9 677.6L90.9 602.1Z" fill="#ea3811" stroke="#ea3811"></path><path d="M0 471.7L0 558.1L65.9 513.7Z" fill="#f57820" stroke="#f57820"></path><path d="M0 93.4L0 158.9L74.9 100.4Z" fill="#f99634" stroke="#f99634"></path><path d="M1460.1 742L1528 659.6L1440.1 667.6Z" fill="#f36d1b" stroke="#f36d1b"></path><path d="M1528 156.9L1528 94.4L1467.1 160.9Z" fill="#ea3811" stroke="#ea3811"></path><path d="M0 558.1L0 640.6L90.9 602.1Z" fill="#e82311" stroke="#e82311"></path><path d="M0 0L0 93.4L74.9 100.4Z" fill="#ed4812" stroke="#ed4812"></path><path d="M1460.1 742L1528 742L1528 659.6Z" fill="#f36d1b" stroke="#f36d1b"></path><path d="M1528 94.4L1528 0L1423.1 0Z" fill="#ea3811" stroke="#ea3811"></path><path d="M0 640.6L0 742L71.9 742Z" fill="#ea3811" stroke="#ea3811"></path><path d="M121.9 0L0 0L74.9 100.4Z" fill="#e82311" stroke="#e82311"></path></g></svg>