<svg id="visual" viewBox="0 0 1528 742" width="1528" height="742" xmlns="http://www.w3.org/2000/svg" xmlns:xlink="http://www.w3.org/1999/xlink" version="1.1"><g><g transform="translate(1278 209)"><path d="M0 -95.2L82.4 -47.6L82.4 47.6L0 95.2L-82.4 47.6L-82.4 -47.6Z" fill="none" stroke="#FB9F3C" stroke-width="6"></path></g><g transform="translate(668 672)"><path d="M0 -83L71.9 -41.5L71.9 41.5L0 83L-71.9 41.5L-71.9 -41.5Z" fill="none" stroke="#FB9F3C" stroke-width="6"></path></g><g transform="translate(1458 317)"><path d="M0 -86L74.5 -43L74.5 43L0 86L-74.5 43L-74.5 -43Z" fill="none" stroke="#FB9F3C" stroke-width="6"></path></g><g transform="translate(1181 651)"><path d="M0 -88L76.2 -44L76.2 44L0 88L-76.2 44L-76.2 -44Z" fill="none" stroke="#FB9F3C" stroke-width="6"></path></g><g transform="translate(835 401)"><path d="M0 -93L80.5 -46.5L80.5 46.5L0 93L-80.5 46.5L-80.5 -46.5Z" fill="none" stroke="#FB9F3C" stroke-width="6"></path></g><g transform="translate(370 345)"><path d="M0 -93L80.5 -46.5L80.5 46.5L0 93L-80.5 46.5L-80.5 -46.5Z" fill="none" stroke="#FB9F3C" stroke-width="6"></path></g></g></svg>